<?xml version="1.0" standalone="no"?><!DOCTYPE svg PUBLIC "-//W3C//DTD SVG 1.1//EN" "http://www.w3.org/Graphics/SVG/1.1/DTD/svg11.dtd"><svg t="1600680972293" class="icon" viewBox="0 0 1024 1024" version="1.1" xmlns="http://www.w3.org/2000/svg" p-id="12959" xmlns:xlink="http://www.w3.org/1999/xlink" width="200" height="200"><defs><style type="text/css"></style></defs><path d="M877.69 255.08a455 455 0 0 0-214-163.58C576.7 59.58 478.74 56.63 389.72 82 304 106.34 225.3 157.14 168.61 226.05a464.55 464.55 0 0 0-71.29 119.38c-17.6 42.76-27.55 88.28-31.07 134.34-7 91.6 15.65 185.46 63.41 263.91C175.79 819.49 245 882 326 918.44a462 462 0 0 0 137.18 37.77c46.46 5.42 93.69 2.77 139.5-6.45 87.78-17.66 170-63.59 231.81-128.21 62.09-64.87 104.91-148.77 118.57-237.7A477.49 477.49 0 0 0 959 512c-0.15-91.23-28.25-182.48-81.31-256.92z m-127.47-48.23s-1.37-1-2.52-1.95a11.08 11.08 0 0 1 2.52 1.95z m-543.37 67s-1 1.36-1.95 2.51a11.36 11.36 0 0 1 1.95-2.55z m67 543.39s1.37 1 2.52 1.95a11.37 11.37 0 0 1-2.57-1.99z m543.37-67s1.05-1.36 2-2.51a11.36 11.36 0 0 1-2.05 2.51z m78.46-186.19a419.36 419.36 0 0 1-26.79 98.24A421.79 421.79 0 0 1 841.41 715q-8.11 13.17-17.18 25.73-2.31 3.19-4.68 6.35c-0.1 0.14-0.21 0.29-0.32 0.46-3.45 4.37-7 8.7-10.55 13a419.73 419.73 0 0 1-43.23 43.91q-5.43 4.76-11 9.33c-1.34 1.09-2.7 2.17-4 3.25l-0.81 0.64c-0.43 0.34-0.85 0.7-1.29 1l-2.07 1.62 1.94-1.54-1.07 0.82q-12.63 9.49-25.94 18a419.93 419.93 0 0 1-59 31.35A419.45 419.45 0 0 1 564 895.66a426.24 426.24 0 0 1-104.06 0 419.28 419.28 0 0 1-98.23-26.79A419.64 419.64 0 0 1 309 841.44q-13.18-8.12-25.73-17.18c-2.14-1.54-4.25-3.1-6.35-4.68l-0.46-0.32c-4.37-3.45-8.7-7-12.95-10.55a419.73 419.73 0 0 1-43.91-43.23q-4.75-5.43-9.33-11-1.63-2-3.25-4.06c0.43 0.55 0 0-0.64-0.8l-1-1.29c-0.54-0.69-1.07-1.39-1.61-2.07l1.53 1.94-0.82-1.08q-9.5-12.61-18-25.94a414.79 414.79 0 0 1-22.91-40.77l51.86-46.52 99.17-88.94 4.05-3.63 30.69 21 76.78 52.56L444 627.12c10.59 7.25 27.83 4.5 36.43-4.71l76.21-81.54L677.93 411.1l5.12-5.48L745 467.55l35.66-203.61L577 299.6l63.49 63.5-53.77 57.53-121.23 129.76-10.67 11.42L426 542.07l-76.78-52.56-17.92-12.25c-11.37-7.78-27-3.79-36.44 4.71L232.35 538l-91.78 82.31a419.69 419.69 0 0 1-12.18-56.28 426.32 426.32 0 0 1 0-104.07 418.82 418.82 0 0 1 26.8-98.23A419.7 419.7 0 0 1 182.61 309q8.12-13.18 17.18-25.73 2.31-3.19 4.68-6.35l0.32-0.46c3.45-4.37 7-8.7 10.55-12.95a419.73 419.73 0 0 1 43.23-43.91q5.43-4.75 11-9.33c1.34-1.1 2.7-2.17 4.06-3.25-0.56 0.43 0 0 0.8-0.65l1.29-1c0.69-0.54 1.38-1.07 2.07-1.62l-1.94 1.54 1.08-0.82q12.62-9.5 25.93-18a419.93 419.93 0 0 1 59-31.35A420 420 0 0 1 460 128.38a426.24 426.24 0 0 1 104.06 0 419.79 419.79 0 0 1 98.23 26.8A418.33 418.33 0 0 1 715 182.61q13.18 8.1 25.74 17.18c2.13 1.54 4.24 3.1 6.35 4.68 0.13 0.1 0.29 0.21 0.45 0.31 4.37 3.46 8.7 7 13 10.56a419.73 419.73 0 0 1 43.91 43.23q4.75 5.43 9.33 11c1.09 1.34 2.17 2.7 3.25 4.06-0.44-0.56 0 0 0.65 0.8 0.34 0.44 0.69 0.86 1 1.29 0.54 0.69 1.07 1.38 1.62 2.07-0.61-0.76-1.12-1.4-1.54-1.94 0.31 0.4 0.6 0.78 0.82 1.08q9.5 12.62 18 25.94a419.32 419.32 0 0 1 31.34 59A418.93 418.93 0 0 1 895.63 460a419.31 419.31 0 0 1 0 104z" p-id="12960"></path><path d="M749.57 817.64l0.81-0.64c-0.33 0.25-1 0.79-2.23 1.76zM274.45 206.4l-0.8 0.65 2.22-1.76zM817.62 274.45c-0.22-0.26-0.43-0.53-0.65-0.8l1.76 2.22zM206.41 749.6l0.64 0.8c-0.25-0.32-0.79-1-1.76-2.22z" p-id="12961"></path></svg>