<?xml version="1.0" standalone="no"?><!DOCTYPE svg PUBLIC "-//W3C//DTD SVG 1.1//EN" "http://www.w3.org/Graphics/SVG/1.1/DTD/svg11.dtd"><svg t="1600676932651" class="icon" viewBox="0 0 1024 1024" version="1.1" xmlns="http://www.w3.org/2000/svg" p-id="10636" xmlns:xlink="http://www.w3.org/1999/xlink" width="200" height="200"><defs><style type="text/css"></style></defs><path d="M279 824.4H83c-9.9 0-18-8.1-18-18V475.3c0-9.9 8.1-18 18-18h196c9.9 0 18 8.1 18 18v331.2c0 9.9-8.1 17.9-18 17.9z m-178.1-36h160V493.3h-160v295.1zM606.4 824.4h-196c-9.9 0-18-8.1-18-18V347.5c0-9.9 8.1-18 18-18h196c9.9 0 18 8.1 18 18v458.9c0 10-8 18-18 18z m-178-36h160V365.5h-160v422.9zM933.1 824.4h-196c-9.9 0-18-8.1-18-18V84.7c0-9.9 8.1-18 18-18h196c9.9 0 18 8.1 18 18v721.8c0 9.9-8 17.9-18 17.9z m-178-36h160V102.7h-160v685.7zM961.4 953.8h-900c-9.9 0-18-8.1-18-18s8.1-18 18-18h900c9.9 0 18 8.1 18 18s-8.1 18-18 18z" fill="#070707" p-id="10637"></path></svg>